<mxfile host="app.diagrams.net" modified="2024-01-11T06:17:31.027Z" agent="Mozilla/5.0 (Windows NT 10.0; Win64; x64) AppleWebKit/537.36 (KHTML, like Gecko) Chrome/120.0.0.0 Safari/537.36 Edg/120.0.0.0" etag="COTQBnE482fPLoGh4KxS" version="22.1.18" type="github">
  <diagram id="prtHgNgQTEPvFCAcTncT" name="Page-1">
    <mxGraphModel dx="1407" dy="720" grid="1" gridSize="10" guides="1" tooltips="1" connect="1" arrows="1" fold="1" page="1" pageScale="1" pageWidth="827" pageHeight="1169" math="0" shadow="0">
      <root>
        <mxCell id="0" />
        <mxCell id="1" parent="0" />
        <mxCell id="5s85hY_GPOJS1mKpv2UH-3" value="用户注册" style="swimlane;childLayout=stackLayout;resizeParent=1;resizeParentMax=0;startSize=20;html=1;" vertex="1" parent="1">
          <mxGeometry x="230.00000000000045" y="130" width="360" height="480" as="geometry" />
        </mxCell>
        <mxCell id="5s85hY_GPOJS1mKpv2UH-4" value="Lane 1" style="swimlane;startSize=20;html=1;" vertex="1" parent="5s85hY_GPOJS1mKpv2UH-3">
          <mxGeometry y="20" width="120" height="460" as="geometry" />
        </mxCell>
        <mxCell id="5s85hY_GPOJS1mKpv2UH-5" value="Lane 2" style="swimlane;startSize=20;html=1;" vertex="1" parent="5s85hY_GPOJS1mKpv2UH-3">
          <mxGeometry x="120" y="20" width="120" height="460" as="geometry" />
        </mxCell>
        <mxCell id="5s85hY_GPOJS1mKpv2UH-6" value="Lane 3" style="swimlane;startSize=20;html=1;" vertex="1" parent="5s85hY_GPOJS1mKpv2UH-3">
          <mxGeometry x="240" y="20" width="120" height="460" as="geometry" />
        </mxCell>
      </root>
    </mxGraphModel>
  </diagram>
</mxfile>
